<?xml version="1.0" encoding="UTF-8"?>
<svg xmlns="http://www.w3.org/2000/svg" id="a" width="865.76" height="682.89" viewBox="0 0 865.76 682.89">
  <ellipse cx="568.63" cy="149.56" rx="21.09" ry="20.73" transform="translate(-14.15 227.52) rotate(-22.36)" fill="#002346" stroke="#002346" stroke-miterlimit="10"></ellipse>
  <ellipse cx="561.33" cy="165.73" rx="16.22" ry="15.95" transform="translate(-20.85 225.96) rotate(-22.36)" fill="#ffffff" stroke="#002346" stroke-miterlimit="10"></ellipse>
  <path d="M462.78,363.4c.06-3.09-.9-6.12-2.74-8.61,0,0-1.64-4.95-.75-8.12l62.64,11.84,1.07-8.15,31.51,13,.29,1.85s-17.71,24.85-35.41,30c-3.87,1.14-8.03,.57-11.46-1.55-3.82-2.39-9.58-6.96-17.18-15.7-4.08-4.69-9.04-8.59-14.71-11.16-3.9-1.77-8.5-3.15-13.4-3.15" fill="#f1b2c0" stroke="#002346" stroke-miterlimit="10"></path>
  <path d="M438.6,506.56c-2.15,17.15,1.3,34.53,9.83,49.56,19,33.36,69.92,88.72,196,78.31,0,0,119.85-12.06,143.93-103.54,6.45-24.33,2.23-50.25-11.6-71.28-6.44-9.6-13.96-18.43-22.43-26.31-27.08-25.5-61.67-41.5-98.48-46.79-52-7.48-138.77-7.76-193.09,57.38,.02,0-19.62,25.68-24.16,62.67Z" fill="#eaeaea" stroke="#002346" stroke-miterlimit="10"></path>
  <path d="M564.8,284.96s-.04,.06-.06,.1c-.87,1.19-19.86,28.08-8.97,85.88,0,0,10.52,51.81,1.1,62.58-.55,.63-.28,1.62,.52,1.88,6.3,2.07,26.27,10.22,47.14,35.27,.07,.08,.14,.15,.23,.21,1.21,.83,10.76,7.47,13.62,12.8,.26,.48,.81,.71,1.33,.57,5.7-1.59,36.5-9.48,67.92-4.4,.58,.09,1.14-.24,1.31-.81,2.03-6.63,13.33-46.63,9.7-104.53,0-.03,0-.07,0-.1,.05-1.77,1.42-54.18-25.82-73.21-.05-.04-.09-.07-.14-.12-.98-.99-14.4-13.95-39.46-8.88-.15,.03-.3,.03-.45,0l-55.01-10.83c-.07-.01-.14-.03-.2-.06l-7.75-3.02c-.54-.21-1.16,0-1.45,.51l-3.54,6.15Z" fill="#ffffff" stroke="#002346" stroke-miterlimit="10"></path>
  <path d="M571.04,282.22c-2.65-5.67-5.91-11.03-9.71-16,0,0,8.08-8,11.44-14.88,0,.03,2.26,21.1-1.73,30.88Z" fill="#f1b2c0" stroke="#002346" stroke-miterlimit="10"></path>
  <path d="M446.07,336.53s-9.74,10.83-4.88,15.12c0,0,7.43,8,10.57,8,0,0,2.77,5.48,7,6.87,1.67,.48,3.41-.49,3.88-2.16,.09-.31,.13-.64,.12-.96-.07-2.41-.22-5.74-2.54-8.36-.14-.16-.24-.35-.29-.56-.59-2.56-.81-5.19-.66-7.81,.35-2.28-3.55-3.32-5.73-5-2.37-1.87-4.87-3.59-7.47-5.14Z" fill="#f1b2c0" stroke="#002346" stroke-miterlimit="10"></path>
  <path d="M519,348s14.32-43.15,45.76-63c0,0-17.77,26.43-10.28,78.39,0,0-26.68-9.74-35.48-15.39Z" fill="#ffffff" stroke="#002346" stroke-miterlimit="10"></path>
  <path d="M285.78,558.61l33.9,28.18,124.68-66.76s47.48,22,76.82,28.09c0,0,12-13,20-20,0,0-37.17-5.04-82.15-33.61l-89,2.94-84.25,61.16Z" fill="#000000" stroke="#002346" stroke-miterlimit="10"></path>
  <path d="M232.69,565.08s-13.2,3.58,1.69,10.36c0,0,23.93,11.14,67.95,22.54,0,0-9.95,9.48-20.29,11.1,0,0-12.81,4.69-18,7.92l-5.11-3.86,4.15-5.65s-25.68-8.11-31.15-13.75l-38.3-26.6c-.33-.25-.47-.67-.36-1.07,.92-2.74,6.51-12.07,39.42-.99Z" fill="#ffffff" stroke="#002346" stroke-miterlimit="10"></path>
  <path d="M232.69,565.08s34.63,18.84,58.59-1.89l25.12,20.88s-8,9.07-14.07,13.91c0,0-53.18-14.16-71.31-24.29,0,.05-9.09-5.79,1.67-8.61Z" fill="#f1b2c0" stroke="#002346" stroke-miterlimit="10"></path>
  <path d="M443.33,331.65l-19.4-15.37c-.36-.29-.42-.82-.13-1.18,.11-.13,.25-.23,.42-.28l11.42-3.23c1.46-.41,3.04-.13,4.27,.76l27.75,20.21c-6.18-1.52-12.24-3.53-18.11-6,0,0-5.34-2.13-6.39-2.65,0,0-4.46-.68-5,.71,.05,.02-.65,1.92,5.17,7.03Z" fill="#ffffff" stroke="#002346" stroke-miterlimit="10"></path>
  <path d="M471.76,333.08l-32.68-23.61c-.59-.43-1.35-.57-2.06-.38l-12,3.19c-.82,.21-1.38,.97-1.35,1.81v1.18l12.67-3.82s1.51-.57,4.08,1.29l27.21,19.82c.69,.13,1.42,.25,2.2,.35s1.34,.13,1.93,.17Z" fill="#002346" stroke="#002346" stroke-miterlimit="10"></path>
  <path d="M316.93,568.22l56.25,23.9s56-60,85.88-97.61c0,0,51.42,34.27,79.12,36.61,0,0,36-36,80.61-46.61,0,0-.61-6.39-10.61-16.39,0,0-24.39-24.47-52.82-33.33,0,0-70.71-15.43-106.71-16.28,0,0-8.58-1.29-20.58,9.85,0,0-32.85,31.76-58,69.09l-53.14,70.77Z" fill="#000000" stroke="#002346" stroke-miterlimit="10"></path>
  <path d="M326.1,572.08s-24.06,33.57-44.06,37c0,0-6.85,9.43,6.29,7.71,0,0,50-16,68.57-24.86l4.27-5.14-35.07-14.71Z" fill="#f1b2c0" stroke="#002346" stroke-miterlimit="10"></path>
  <path d="M331.76,623.36v4.92c0,1.28,1.04,2.32,2.32,2.32,.06,0,.12,0,.18,0l22.36-1.8s9.71-11.43,.28-36.86l-68.57,24.86s-7,1.36-8-2.39c0,0,0-3.32,1.71-5.32,0,0-31.57,10.57-30.71,21.71,0,0-2.14,4.72,11.86,3.29l40.53-2c1.59-.08,3.16-.37,4.67-.88l23.37-7.84Z" fill="#ffffff" stroke="#002346" stroke-miterlimit="10"></path>
  <rect x="511.6" y="177.93" width="60.71" height="94.42" rx="30.36" ry="30.36" transform="translate(-44.31 251.61) rotate(-25.14)" fill="#f1b2c0" stroke="#002346" stroke-miterlimit="10"></rect>
  <path d="M521.63,253.29l-14.32-30.52c-4.87-10.34-2.07-18.6-2.07-18.6,.02,0,.09,1.28,3.06,2.23,1.49,.47,3.06,.61,4.62,.51,9.79-.65,60.44-1.44,60.19,52.28,0,0-4.71,50,1.05,73.09,0,0,9.17,25.68-11.79,32.75,0,0,29.35,16,39.56-16.77l3.67-12.83s5.24-53.45,47.42-43.49c0,0,24.37,.78,39,38.25,4,14.43,6.2,29.3,6.55,44.27,0,0,15.09-7.11,18.42-34.34,2.11-18.32-2.08-36.81-11.89-52.43-7.55-12.13-17.05-22.94-28.1-32,0,0-24-16.72-36.85-23.57,0,0-13.35-7.79-25.75-25.32,0,0-28.25-51.83-62.11-48.4,0,0-29.06-5.14-47.1,30,0,0-10.53,13.69-1.41,37.71,.84,2.22,1.6,4.48,2.3,6.75,1.5,4.78,3.46,9.41,5.85,13.81,1.72,3.19,3.76,6.21,6.07,9,3,3.65,9.44,14.21,6.45,36,0,0-9.57,38.56-3.79,51.85,0,0,11.84-32.4,38.54-54.27,3.77-3.09,7.01-6.78,9.44-11.01l.17-.29s-2.87-5.93-6.5-9.68c-29.13,10.86-40.68-14.97-40.68-14.97Z" fill="#002346" stroke="#002346" stroke-miterlimit="10"></path>
  <path d="M515.47,348.22l74.15,43.71c15.42,12,16.3-22.87,16.3-22.87,10.54,1,21.5,2.21,32.81,3.81,8,1.12,15.8,2.37,23.34,3.7l-23.24,62.08s-17.78,25.72-47.93,0c0,0-49-36.87-76.91-66.33-2.61-2.74-5.95-4.68-9.62-5.59-5.8-1.47-14.71-3.36-21.45-3.22-3.74,.12-7.39-1.19-10.19-3.68-1.54-1.4-3.43-3.23-5.69-5.61,0,0-14.63-15.54-24.17-19.25-.93-.33-1.42-1.34-1.09-2.27,.06-.18,.16-.36,.28-.51,.32-.36,.79-.56,1.27-.54,0,0-11.57-9.72-.14-7.72,0,0,20.85,9.15,28.57,9.15l9.25-.22c.5-.01,.6-.72,.12-.86-6.94-2.01-23.64-7.7-20.23-15.21,0,0,1.72-3.43,10,0,7.53,1.56,14.92,3.7,22.12,6.41,8.01,3.16,14.55,9.17,18.38,16.88l4.07,8.14Z" fill="#f1b2c0" stroke="#002346" stroke-miterlimit="10"></path>
  <path d="M603.33,368.79s49.85,6.33,63,9c0,0,5.91-28.31,7.57-51.58s-19.02-39.75-40.55-34.07c-.14,.04-.28,.07-.42,.11,0,0-26.63,6.26-27.49,52.11l-2.11,24.43Z" fill="#ffffff" stroke="#002346" stroke-miterlimit="10"></path>
  <line x1="443.33" y1="331.65" x2="467.86" y2="343.51" fill="none" stroke="#002346" stroke-linecap="round" stroke-linejoin="round"></line>
  <line x1="451.76" y1="359.65" x2="447.72" y2="346.1" fill="none" stroke="#002346" stroke-linecap="round" stroke-linejoin="round"></line>
  <path d="M506.92,566.7s76.27-116.58,201.51-82.18" fill="none" stroke="#002346" stroke-linecap="round" stroke-linejoin="round"></path>
  <g>
    <path d="M390.8,318.17H225.06c-6.98,0-12.63,5.66-12.62,12.64,0,0,0,0,0,.01h0v39.41c-.01,6.97,5.63,12.63,12.6,12.64h161.35c1.35,0,2.64,.56,3.56,1.54l13.28,14.1c.08,.08,.22,.03,.22-.09v-67.6c.01-6.98-5.63-12.64-12.61-12.65h-.03Z" fill="#eaeaea" stroke="#002346" stroke-miterlimit="10"></path>
    <circle cx="247" cy="349.67" r="17.76" fill="#fff" stroke="#002346" stroke-miterlimit="10"></circle>
    <g>
      <path d="M253.73,345.2v.46c0,3.5-2.83,6.33-6.33,6.33h0c-3.5,0-6.33-2.83-6.33-6.33v-.4" fill="none" stroke="#002346" stroke-linecap="round" stroke-linejoin="round"></path>
      <path d="M253.73,346.18h.78c.69,0,1.25-.56,1.25-1.25h0c0-.69-.56-1.25-1.25-1.25h0c-1.82,.09-3.63-.29-5.25-1.12-2.28-1.16-5.13-3.4-6.72-7.65" fill="none" stroke="#002346" stroke-linecap="round" stroke-linejoin="round"></path>
      <path d="M243.15,339.46s-1.23,.49-1.23,2.21v.53c0,.78-.64,1.42-1.42,1.42h0c-.71,0-1.28,.57-1.28,1.28h0c0,.71,.57,1.28,1.28,1.28h.56" fill="none" stroke="#002346" stroke-linecap="round" stroke-linejoin="round"></path>
      <path d="M243.15,355.48s-3.5-2.32-4.15-9.29v-4.46c0-4.63,3.75-8.38,8.38-8.38h0c4.63,0,8.38,3.75,8.38,8.38v23.44" fill="none" stroke="#002346" stroke-linecap="round" stroke-linejoin="round"></path>
      <path d="M250.41,353.22v2.01s.11,1.43,.99,2.74c.07,.1,.14,.19,.22,.29,.47,.58,3.57,3.86,2.11,7.91" fill="none" stroke="#002346" stroke-linecap="round" stroke-linejoin="round"></path>
      <path d="M244.55,351.32v2.07c0,1-.64,1.88-1.58,2.19l-5.2,1.73c-1.06,.43-1.75,1.46-1.75,2.6v3.26" fill="none" stroke="#002346" stroke-linecap="round" stroke-linejoin="round"></path>
      <path d="M236.48,358.38l2.81,2.49c.43,.38,.67,.92,.67,1.49v2.81" fill="none" stroke="#002346" stroke-linecap="round" stroke-linejoin="round"></path>
      <path d="M242.25,355.82s2.84,6.69,9,1.92" fill="none" stroke="#002346" stroke-linecap="round" stroke-linejoin="round"></path>
      <path d="M240.29,356.47s4.12,8.72,12.16,2.98" fill="none" stroke="#002346" stroke-linecap="round" stroke-linejoin="round"></path>
      <path d="M255.76,356.95h0c1.61,0,2.92,1.31,2.92,2.92v3.29" fill="none" stroke="#002346" stroke-linecap="round" stroke-linejoin="round"></path>
      <line x1="255.76" y1="360.56" x2="258.27" y2="358.38" fill="none" stroke="#002346" stroke-linecap="round" stroke-linejoin="round"></line>
      <line x1="243.15" y1="342.82" x2="245.24" y2="342.04" fill="none" stroke="#002346" stroke-linecap="round" stroke-linejoin="round"></line>
      <line x1="244.43" y1="345" x2="244.43" y2="343.84" fill="none" stroke="#002346" stroke-linecap="round" stroke-linejoin="round"></line>
      <line x1="250.33" y1="345" x2="250.33" y2="343.84" fill="none" stroke="#002346" stroke-linecap="round" stroke-linejoin="round"></line>
      <path d="M245.61,347.45s1.67,1.48,3.54,0" fill="none" stroke="#002346" stroke-linecap="round" stroke-linejoin="round"></path>
    </g>
    <g>
      <line x1="273.94" y1="336.17" x2="336.22" y2="336.17" fill="none" stroke="#002346" stroke-linecap="round" stroke-linejoin="round"></line>
      <line x1="273.94" y1="345.17" x2="380.22" y2="345.17" fill="none" stroke="#002346" stroke-linecap="round" stroke-linejoin="round"></line>
      <line x1="273.94" y1="354.17" x2="380.22" y2="354.17" fill="none" stroke="#002346" stroke-linecap="round" stroke-linejoin="round"></line>
      <line x1="273.94" y1="363.17" x2="380.22" y2="363.17" fill="none" stroke="#002346" stroke-linecap="round" stroke-linejoin="round"></line>
    </g>
  </g>
  <g>
    <path d="M392.8,137.51H227.06c-6.98,0-12.63,5.66-12.62,12.64,0,0,0,0,0,.01h0v39.41c-.01,6.97,5.63,12.63,12.6,12.64h161.35c1.35,0,2.64,.56,3.56,1.54l13.28,14.1c.08,.08,.22,.03,.22-.09v-67.6c.01-6.98-5.63-12.64-12.61-12.65h-.03Z" fill="#eaeaea" stroke="#002346" stroke-miterlimit="10"></path>
    <circle cx="249" cy="169.01" r="17.76" fill="#fff" stroke="#002346" stroke-miterlimit="10"></circle>
    <g>
      <path d="M255.73,164.54v.46c0,3.5-2.83,6.33-6.33,6.33h0c-3.5,0-6.33-2.83-6.33-6.33v-.4" fill="none" stroke="#002346" stroke-linecap="round" stroke-linejoin="round"></path>
      <path d="M255.73,165.51h.78c.69,0,1.25-.56,1.25-1.25h0c0-.69-.56-1.25-1.25-1.25h0c-1.82,.09-3.63-.29-5.25-1.12-2.28-1.16-5.13-3.4-6.72-7.65" fill="none" stroke="#002346" stroke-linecap="round" stroke-linejoin="round"></path>
      <path d="M245.15,158.79s-1.23,.49-1.23,2.21v.53c0,.78-.64,1.42-1.42,1.42h0c-.71,0-1.28,.57-1.28,1.28h0c0,.71,.57,1.28,1.28,1.28h.56" fill="none" stroke="#002346" stroke-linecap="round" stroke-linejoin="round"></path>
      <path d="M245.15,174.81s-3.5-2.32-4.15-9.29v-4.46c0-4.63,3.75-8.38,8.38-8.38h0c4.63,0,8.38,3.75,8.38,8.38v23.44" fill="none" stroke="#002346" stroke-linecap="round" stroke-linejoin="round"></path>
      <path d="M252.41,172.56v2.01s.11,1.43,.99,2.74c.07,.1,.14,.19,.22,.29,.47,.58,3.57,3.86,2.11,7.91" fill="none" stroke="#002346" stroke-linecap="round" stroke-linejoin="round"></path>
      <path d="M246.55,170.65v2.07c0,1-.64,1.88-1.58,2.19l-5.2,1.73c-1.06,.43-1.75,1.46-1.75,2.6v3.26" fill="none" stroke="#002346" stroke-linecap="round" stroke-linejoin="round"></path>
      <path d="M238.48,177.71l2.81,2.49c.43,.38,.67,.92,.67,1.49v2.81" fill="none" stroke="#002346" stroke-linecap="round" stroke-linejoin="round"></path>
      <path d="M244.25,175.15s2.84,6.69,9,1.92" fill="none" stroke="#002346" stroke-linecap="round" stroke-linejoin="round"></path>
      <path d="M242.29,175.81s4.12,8.72,12.16,2.98" fill="none" stroke="#002346" stroke-linecap="round" stroke-linejoin="round"></path>
      <path d="M257.76,176.29h0c1.61,0,2.92,1.31,2.92,2.92v3.29" fill="none" stroke="#002346" stroke-linecap="round" stroke-linejoin="round"></path>
      <line x1="257.76" y1="179.89" x2="260.27" y2="177.71" fill="none" stroke="#002346" stroke-linecap="round" stroke-linejoin="round"></line>
      <line x1="245.15" y1="162.15" x2="247.24" y2="161.37" fill="none" stroke="#002346" stroke-linecap="round" stroke-linejoin="round"></line>
      <line x1="246.43" y1="164.33" x2="246.43" y2="163.17" fill="none" stroke="#002346" stroke-linecap="round" stroke-linejoin="round"></line>
      <line x1="252.33" y1="164.33" x2="252.33" y2="163.17" fill="none" stroke="#002346" stroke-linecap="round" stroke-linejoin="round"></line>
      <path d="M247.61,166.78s1.67,1.48,3.54,0" fill="none" stroke="#002346" stroke-linecap="round" stroke-linejoin="round"></path>
    </g>
    <g>
      <line x1="275.94" y1="155.51" x2="338.22" y2="155.51" fill="none" stroke="#002346" stroke-linecap="round" stroke-linejoin="round"></line>
      <line x1="275.94" y1="164.51" x2="382.22" y2="164.51" fill="none" stroke="#002346" stroke-linecap="round" stroke-linejoin="round"></line>
      <line x1="275.94" y1="173.51" x2="382.22" y2="173.51" fill="none" stroke="#002346" stroke-linecap="round" stroke-linejoin="round"></line>
      <line x1="275.94" y1="182.51" x2="382.22" y2="182.51" fill="none" stroke="#002346" stroke-linecap="round" stroke-linejoin="round"></line>
    </g>
  </g>
  <g>
    <path d="M87.06,227.84h-.01c-6.98,.01-12.62,5.67-12.61,12.65v67.6c0,.11,.14,.17,.22,.09l13.28-14.1c.92-.98,2.21-1.54,3.56-1.54H252.84s0,0,0,0c6.97-.01,12.61-5.67,12.6-12.64v-39.41h0s0,0,0-.01c0-6.98-5.64-12.63-12.62-12.64H87.08s-.02,0-.02,0Z" fill="#eaeaea" stroke="#002346" stroke-miterlimit="10"></path>
    <circle cx="109" cy="259.34" r="17.76" fill="#fff" stroke="#002346" stroke-miterlimit="10"></circle>
    <g>
      <line x1="135.94" y1="245.84" x2="198.22" y2="245.84" fill="none" stroke="#002346" stroke-linecap="round" stroke-linejoin="round"></line>
      <line x1="135.94" y1="254.84" x2="242.22" y2="254.84" fill="none" stroke="#002346" stroke-linecap="round" stroke-linejoin="round"></line>
      <line x1="135.94" y1="263.84" x2="242.22" y2="263.84" fill="none" stroke="#002346" stroke-linecap="round" stroke-linejoin="round"></line>
      <line x1="135.94" y1="272.84" x2="242.22" y2="272.84" fill="none" stroke="#002346" stroke-linecap="round" stroke-linejoin="round"></line>
    </g>
    <g>
      <path d="M114.59,256.41v.56c0,3.26-2.64,5.9-5.9,5.9h0c-3.26,0-5.9-2.64-5.9-5.9v-.52" fill="none" stroke="#002346" stroke-linecap="round" stroke-linejoin="round"></path>
      <path d="M102.79,257.25h-.8c-.67,0-1.22-.55-1.22-1.22h0c0-.67,.55-1.22,1.22-1.22h.8c.48,0,.86-.39,.86-.86v-1.67s-.12-1.84,2.3-2.07" fill="none" stroke="#002346" stroke-linecap="round" stroke-linejoin="round"></path>
      <path d="M114.65,257.25h.8c.67,0,1.22-.55,1.22-1.22h0c0-.67-.55-1.22-1.22-1.22h-.8c-.48,0-.86-.39-.86-.86v-1.67" fill="none" stroke="#002346" stroke-linecap="round" stroke-linejoin="round"></path>
      <path d="M101.69,254.85l-.33-4.65s0-3.57,3.45-4.26c0,0,.92-1.15,2.19-.46,0,0,1.38-2.07,3.8-.46,0,0,1.84-.92,2.76,.81,0,0,2.47,.18,2.85,2.46,.12,.69,.01,1.41-.28,2.05s-.79,1.35-1.72,1.71c-.87,.34-1.87,.26-2.68-.22-.31-.19-.65-.45-.94-.82,0,0-3.34,1.5-3.57-2.42" fill="none" stroke="#002346" stroke-linecap="round" stroke-linejoin="round"></path>
      <path d="M116.01,250.58s-.1,2.88-.41,4.25" fill="none" stroke="#002346" stroke-linecap="round" stroke-linejoin="round"></path>
      <path d="M105.41,261.87v1.8c0,.82-.54,1.55-1.33,1.79l-4.39,1.32c-1.21,.41-2.02,1.55-2.02,2.83v2.73" fill="none" stroke="#002346" stroke-linecap="round" stroke-linejoin="round"></path>
      <path d="M111.94,261.87v1.8c0,.82,.54,1.55,1.33,1.79l4.39,1.32c1.21,.41,2.02,1.55,2.02,2.83v3.73" fill="none" stroke="#002346" stroke-linecap="round" stroke-linejoin="round"></path>
      <path d="M103.37,265.68s4.71,5.91,10.62,0" fill="none" stroke="#002346" stroke-linecap="round" stroke-linejoin="round"></path>
      <path d="M101.54,266.23s6.5,9,14.27,0" fill="none" stroke="#002346" stroke-linecap="round" stroke-linejoin="round"></path>
      <line x1="105.84" y1="256.18" x2="105.84" y2="255.09" fill="none" stroke="#002346" stroke-linecap="round" stroke-linejoin="round"></line>
      <line x1="111.48" y1="256.18" x2="111.48" y2="255.09" fill="none" stroke="#002346" stroke-linecap="round" stroke-linejoin="round"></line>
      <line x1="105.04" y1="254.12" x2="106.76" y2="253.89" fill="none" stroke="#002346" stroke-linecap="round" stroke-linejoin="round"></line>
      <line x1="110.46" y1="253.89" x2="112.21" y2="254.12" fill="none" stroke="#002346" stroke-linecap="round" stroke-linejoin="round"></line>
      <path d="M106.76,258.43s1.87,1.66,3.7,0" fill="none" stroke="#002346" stroke-linecap="round" stroke-linejoin="round"></path>
    </g>
  </g>
  <g>
    <path d="M87.06,47.17h-.01c-6.98,.01-12.62,5.67-12.61,12.65V127.43c0,.11,.14,.17,.22,.09l13.28-14.1c.92-.98,2.21-1.54,3.56-1.54H252.84s0,0,0,0c6.97-.01,12.61-5.67,12.6-12.64V59.82h0s0,0,0-.01c0-6.98-5.64-12.63-12.62-12.64H87.08s-.02,0-.02,0Z" fill="#eaeaea" stroke="#002346" stroke-miterlimit="10"></path>
    <circle cx="109" cy="78.67" r="17.76" fill="#fff" stroke="#002346" stroke-miterlimit="10"></circle>
    <g>
      <line x1="135.94" y1="65.17" x2="198.22" y2="65.17" fill="none" stroke="#002346" stroke-linecap="round" stroke-linejoin="round"></line>
      <line x1="135.94" y1="74.17" x2="242.22" y2="74.17" fill="none" stroke="#002346" stroke-linecap="round" stroke-linejoin="round"></line>
      <line x1="135.94" y1="83.17" x2="242.22" y2="83.17" fill="none" stroke="#002346" stroke-linecap="round" stroke-linejoin="round"></line>
      <line x1="135.94" y1="92.17" x2="242.22" y2="92.17" fill="none" stroke="#002346" stroke-linecap="round" stroke-linejoin="round"></line>
    </g>
    <g>
      <path d="M114.59,75.75v.56c0,3.26-2.64,5.9-5.9,5.9h0c-3.26,0-5.9-2.64-5.9-5.9v-.52" fill="none" stroke="#002346" stroke-linecap="round" stroke-linejoin="round"></path>
      <path d="M102.79,76.58h-.8c-.67,0-1.22-.55-1.22-1.22h0c0-.67,.55-1.22,1.22-1.22h.8c.48,0,.86-.39,.86-.86v-1.67s-.12-1.84,2.3-2.07" fill="none" stroke="#002346" stroke-linecap="round" stroke-linejoin="round"></path>
      <path d="M114.65,76.58h.8c.67,0,1.22-.55,1.22-1.22h0c0-.67-.55-1.22-1.22-1.22h-.8c-.48,0-.86-.39-.86-.86v-1.67" fill="none" stroke="#002346" stroke-linecap="round" stroke-linejoin="round"></path>
      <path d="M101.69,74.19l-.33-4.65s0-3.57,3.45-4.26c0,0,.92-1.15,2.19-.46,0,0,1.38-2.07,3.8-.46,0,0,1.84-.92,2.76,.81,0,0,2.47,.18,2.85,2.46,.12,.69,.01,1.41-.28,2.05s-.79,1.35-1.72,1.71c-.87,.34-1.87,.26-2.68-.22-.31-.19-.65-.45-.94-.82,0,0-3.34,1.5-3.57-2.42" fill="none" stroke="#002346" stroke-linecap="round" stroke-linejoin="round"></path>
      <path d="M116.01,69.91s-.1,2.88-.41,4.25" fill="none" stroke="#002346" stroke-linecap="round" stroke-linejoin="round"></path>
      <path d="M105.41,81.21v1.8c0,.82-.54,1.55-1.33,1.79l-4.39,1.32c-1.21,.41-2.02,1.55-2.02,2.83v2.73" fill="none" stroke="#002346" stroke-linecap="round" stroke-linejoin="round"></path>
      <path d="M111.94,81.21v1.8c0,.82,.54,1.55,1.33,1.79l4.39,1.32c1.21,.41,2.02,1.55,2.02,2.83v3.73" fill="none" stroke="#002346" stroke-linecap="round" stroke-linejoin="round"></path>
      <path d="M103.37,85.01s4.71,5.91,10.62,0" fill="none" stroke="#002346" stroke-linecap="round" stroke-linejoin="round"></path>
      <path d="M101.54,85.56s6.5,9,14.27,0" fill="none" stroke="#002346" stroke-linecap="round" stroke-linejoin="round"></path>
      <line x1="105.84" y1="75.51" x2="105.84" y2="74.43" fill="none" stroke="#002346" stroke-linecap="round" stroke-linejoin="round"></line>
      <line x1="111.48" y1="75.51" x2="111.48" y2="74.43" fill="none" stroke="#002346" stroke-linecap="round" stroke-linejoin="round"></line>
      <line x1="105.04" y1="73.46" x2="106.76" y2="73.23" fill="none" stroke="#002346" stroke-linecap="round" stroke-linejoin="round"></line>
      <line x1="110.46" y1="73.23" x2="112.21" y2="73.46" fill="none" stroke="#002346" stroke-linecap="round" stroke-linejoin="round"></line>
      <path d="M106.76,77.77s1.87,1.66,3.7,0" fill="none" stroke="#002346" stroke-linecap="round" stroke-linejoin="round"></path>
    </g>
  </g>
</svg>
